<svg width="621" height="469" viewBox="0 0 621 469" fill="none" xmlns="http://www.w3.org/2000/svg">
<g clip-path="url(#clip0_339_477)">
<path d="M398.247 269.914C376.965 227.369 336.37 194.702 293.396 197.849C325.095 237.023 343.579 287.676 345.578 340.846C346.284 361.354 345.19 384.249 357.172 399.605C364.628 409.161 376.024 413.788 387.229 414.759C398.434 415.73 409.637 413.429 420.693 411.138L423.374 412.074C424.395 363.149 419.529 312.458 398.247 269.914Z" fill="#F0F0F0"/>
<path d="M293.332 198.874C325.111 216.259 352.208 245.294 368.842 280.705C372.438 288.36 375.5 296.482 376.835 305.07C378.172 313.661 377.238 321.839 374.656 329.999C372.296 337.458 369.121 344.778 368.397 352.76C367.634 361.173 370.358 369.04 375.261 375.283C381.261 382.922 389.318 387.656 397.338 391.974C406.243 396.768 415.56 401.587 421.867 410.535C422.632 411.619 424.067 410.208 423.304 409.125C412.33 393.558 393.546 390.632 380.52 378.091C374.442 372.24 369.878 364.271 370.166 354.934C370.418 346.769 373.686 339.218 376.134 331.688C378.704 323.782 379.985 315.832 379.064 307.403C378.121 298.78 375.332 290.506 371.924 282.779C364.238 265.354 353.718 249.356 341.668 235.527C327.819 219.63 311.679 206.544 293.947 196.833C292.849 196.232 292.242 198.277 293.332 198.874Z" fill="white"/>
<path d="M363.969 268.87C368.841 264.822 372.288 258.938 373.694 252.268C375.101 245.599 374.375 238.578 371.647 232.46C371.091 231.224 369.376 232.148 369.932 233.385C372.482 239.077 373.157 245.616 371.836 251.824C370.515 258.032 367.285 263.499 362.729 267.238C361.74 268.052 362.986 269.68 363.969 268.87Z" fill="white"/>
<path d="M376.291 326.395C364.084 324.368 352.997 317.187 345.242 306.283C344.475 305.202 343.039 306.613 343.805 307.692C351.894 319.022 363.445 326.469 376.152 328.546C377.364 328.743 377.496 326.591 376.291 326.395Z" fill="white"/>
<path d="M326.882 222.285C325.284 224.297 323.271 225.827 321.024 226.738C318.778 227.648 316.367 227.91 314.009 227.5C312.801 227.285 312.67 229.438 313.87 229.651C316.477 230.09 319.139 229.797 321.623 228.798C324.108 227.798 326.339 226.123 328.122 223.917C328.305 223.725 328.417 223.461 328.436 223.179C328.454 222.896 328.377 222.616 328.22 222.396C328.055 222.181 327.822 222.048 327.571 222.028C327.32 222.007 327.073 222.099 326.882 222.285Z" fill="white"/>
<path d="M207.892 332.061C208.643 332.219 209.394 332.377 210.152 332.552C220.243 334.74 230.161 337.855 239.807 341.868C240.557 342.165 241.314 342.478 242.055 342.799C265.205 352.748 286.529 367.495 304.942 386.29C312.263 393.777 319.072 401.886 325.31 410.547C333.925 422.508 342.429 436.256 353.686 444.055C354.853 444.884 356.063 445.63 357.311 446.288L422.162 415.719C422.279 415.566 422.402 415.429 422.52 415.275L425.158 414.189C424.864 413.716 424.55 413.234 424.255 412.762C424.085 412.487 423.901 412.219 423.732 411.944C423.614 411.763 423.495 411.583 423.398 411.412C423.359 411.351 423.32 411.291 423.287 411.247C423.19 411.076 423.083 410.929 422.992 410.775C421.243 408.072 419.474 405.379 417.685 402.694C417.679 402.677 417.679 402.677 417.658 402.667C403.981 382.253 388.684 362.957 371.296 346.913C370.772 346.431 370.244 345.931 369.691 345.462C361.818 338.28 353.441 331.841 344.645 326.209C339.82 323.143 334.861 320.357 329.788 317.86C316.669 311.439 302.743 307.403 288.52 305.899C260.166 302.907 231.286 310.253 209.54 330.496C208.984 331.014 208.442 331.526 207.892 332.061Z" fill="#F0F0F0"/>
<path d="M208.379 332.928C242.963 325.066 279.981 329.709 312.023 346.601C318.95 350.253 325.697 354.643 331.313 360.586C336.932 366.531 340.519 373.7 342.78 381.981C344.848 389.553 346.191 397.569 349.842 404.438C353.69 411.677 360.032 416.094 367.255 417.724C376.092 419.719 385.033 417.986 393.725 415.946C403.375 413.681 413.367 411.154 423.143 413.983C424.328 414.326 424.727 412.217 423.544 411.875C406.534 406.953 389.986 417.469 372.941 416.369C364.988 415.855 357.123 412.615 352.406 404.963C348.282 398.271 346.89 390.006 344.855 382.319C342.719 374.248 339.531 367.024 334.329 360.924C329.008 354.685 322.397 349.986 315.582 346.149C300.213 337.494 283.339 331.918 266.391 329.121C246.912 325.905 227.092 326.499 207.788 330.878C206.594 331.149 207.192 333.197 208.379 332.928Z" fill="white"/>
<path d="M301.862 340.486C303.607 333.921 303.242 326.864 300.832 320.576C298.421 314.289 294.122 309.18 288.703 306.161C287.604 305.555 286.724 307.466 287.823 308.073C292.874 310.873 296.878 315.633 299.113 321.493C301.347 327.353 301.664 333.928 300.007 340.031C299.648 341.358 301.506 341.805 301.862 340.486Z" fill="white"/>
<path d="M342.177 377.986C331.356 384.72 318.7 386.571 306.731 383.171C305.545 382.833 305.146 384.942 306.33 385.279C318.791 388.791 331.959 386.834 343.206 379.798C344.277 379.127 343.243 377.318 342.177 377.986Z" fill="white"/>
<path d="M247.569 328.665C247.36 331.366 246.563 333.964 245.252 336.228C243.94 338.493 242.154 340.351 240.054 341.637C238.976 342.292 240.011 344.101 241.083 343.449C243.397 342.016 245.367 339.961 246.821 337.464C248.275 334.966 249.169 332.101 249.424 329.12C249.469 328.842 249.419 328.554 249.284 328.316C249.149 328.078 248.939 327.907 248.697 327.839C248.451 327.78 248.195 327.834 247.983 327.988C247.772 328.143 247.623 328.386 247.569 328.665Z" fill="white"/>
<path d="M331.429 382.494C340.511 332.589 351.864 315.95 351.864 315.95L356.201 312.128L361.417 307.524L361.392 306.932L362.629 306.454L362.919 306.198L363.395 305.782L363.472 305.876L363.634 306.066L387.235 296.949L417.178 285.391L431.043 264.91C433.301 261.575 436.208 258.879 439.537 257.034C442.865 255.189 446.525 254.245 450.228 254.276L494.509 254.648C500.496 254.699 506.251 257.292 510.64 261.92L539.746 292.6L585.098 317.215L585.174 317.128L585.65 317.515L592.658 321.322L592.368 323.033L596.706 326.589C596.706 326.589 608.058 342.071 617.141 388.507C619.451 400.323 620.588 425.669 620.999 456.902C621.019 458.482 620.763 460.05 620.246 461.517C619.728 462.984 618.959 464.318 617.983 465.444C617.008 466.57 615.845 467.464 614.562 468.074C613.28 468.685 611.903 468.999 610.513 469H368.28L338.046 469C336.657 468.999 335.281 468.685 333.999 468.075C332.718 467.465 331.555 466.572 330.58 465.448C329.604 464.324 328.835 462.99 328.316 461.525C327.798 460.06 327.541 458.493 327.56 456.914C327.961 422.928 329.098 395.308 331.429 382.494Z" fill="#3F3D56"/>
<path d="M300.349 43.5215C309.774 43.5215 318.812 47.776 325.476 55.3491C332.14 62.9222 335.884 73.1936 335.884 83.9035C335.884 94.6135 332.14 104.885 325.476 112.458C318.812 120.031 309.774 124.286 300.349 124.286H35.5342C26.11 124.286 17.0717 120.031 10.4077 112.458C3.74374 104.885 -3.05176e-05 94.6135 -3.05176e-05 83.9035C-3.05176e-05 73.1936 3.74374 62.9222 10.4077 55.3491C17.0717 47.776 26.11 43.5215 35.5342 43.5215H300.349Z" fill="#E5E5E5"/>
<path d="M300.349 51.6938C307.866 51.6938 315.076 55.0873 320.391 61.1278C325.706 67.1682 328.692 75.3609 328.692 83.9034C328.692 92.4459 325.706 100.638 320.391 106.679C315.076 112.719 307.866 116.113 300.349 116.113H35.5343C28.0174 116.113 20.8083 112.719 15.493 106.679C10.1777 100.638 7.19147 92.4459 7.19147 83.9034C7.19147 75.3609 10.1777 67.1682 15.493 61.1278C20.8083 55.0873 28.0174 51.6938 35.5343 51.6938H300.349Z" fill="white"/>
<path d="M465.414 235.371C433.375 235.371 407.402 205.854 407.402 169.444C407.402 133.033 433.375 103.517 465.414 103.517C497.454 103.517 523.427 133.033 523.427 169.444C523.427 205.854 497.454 235.371 465.414 235.371Z" fill="#9E616A"/>
<path d="M480.255 232.143C480.503 231.523 480.75 230.9 480.997 230.276C480.902 230.279 480.808 230.295 480.713 230.298L480.255 232.143Z" fill="#2F2E41"/>
<path d="M525.041 106.515C522.106 103.855 518.677 101.407 514.926 101.545C511.174 101.682 507.37 105.532 508.147 109.705C501.257 95.8408 490.289 85.1773 477.17 79.5867C464.05 73.9961 449.617 73.8356 436.404 79.1334C427.08 82.8717 417.937 90.3503 415.795 101.319C415.245 104.135 415.127 107.222 413.58 109.509C411.63 112.392 407.898 113.044 404.825 112.03C404.794 112.02 404.763 112.009 404.733 111.999C404.213 111.797 403.653 111.778 403.124 111.942C402.595 112.107 402.121 112.448 401.764 112.921C401.408 113.395 401.184 113.979 401.123 114.599C401.062 115.218 401.165 115.844 401.421 116.396L404.059 121.987C400.733 122.83 397.278 122.746 393.987 121.744C393.44 121.581 392.862 121.614 392.333 121.839C391.804 122.064 391.348 122.47 391.03 123C390.711 123.531 390.545 124.16 390.554 124.803C390.562 125.445 390.746 126.068 391.079 126.587C399.777 140.16 414.31 148.924 429.141 148.821C439.682 148.748 450.331 144.62 460.589 147.374C464.558 148.44 468.266 150.502 471.442 153.409C474.618 156.315 477.181 159.993 478.943 164.173C480.705 168.352 481.621 172.926 481.625 177.56C481.628 182.195 480.718 186.771 478.963 190.953C482.114 187.036 488.206 187.964 491.43 191.804C494.653 195.645 495.488 201.378 495.163 206.673C494.666 214.771 491.874 222.402 488.931 229.829C513.609 228.946 536.95 209.273 544.807 182.665C552.696 155.946 544.428 124.09 525.041 106.515Z" fill="#2F2E41"/>
<path opacity="0.2" d="M563.9 367.427L547.629 468.034L537.866 469L563.9 367.427Z" fill="black"/>
<path opacity="0.2" d="M384.669 359.84L400.94 467.961L410.703 469L384.669 359.84Z" fill="black"/>
<path d="M511.162 72.6556C514.282 74.1361 517.538 72.5136 518.903 68.7981C520.289 65.0257 518.994 61.1962 515.824 59.6921C512.654 58.1878 509.457 59.8142 508.049 63.6474C506.661 67.4231 507.942 71.1273 511.162 72.6556ZM517.139 52.2668L519.619 53.4439C520.239 53.7345 520.932 53.7502 521.561 53.4878C522.191 53.2255 522.71 52.7043 523.018 52.0273L523.141 51.7546C525.81 46.2843 526.115 39.6359 524.044 32.0045C522.125 25.1588 521.328 20.3442 522.931 15.9825C524.784 10.9395 528.741 9.35979 533.787 11.6482C535.744 12.5769 536.366 12.5621 537.907 14.2983C538.242 14.6805 538.641 14.9822 539.081 15.1853C539.52 15.3884 539.992 15.4888 540.466 15.4804C540.925 15.4743 541.378 15.3632 541.799 15.1538C542.219 14.9444 542.598 14.6409 542.913 14.2615C543.519 13.5303 543.859 12.5648 543.864 11.5599C543.868 10.5551 543.537 9.5857 542.937 8.84761C540.348 5.76817 537.226 3.33194 533.767 1.69265C522.926 -3.45188 517.468 4.14329 514.971 10.9403C512.528 17.5885 513.902 23.7569 516.11 31.7456C517.96 38.3838 517.853 43.3025 515.751 48.1933C515.599 48.5631 515.515 48.9638 515.503 49.3716C515.491 49.7793 515.551 50.1857 515.681 50.5661C515.81 50.9466 516.006 51.2933 516.257 51.5856C516.507 51.8778 516.807 52.1096 517.139 52.2668Z" fill="#B188E3"/>
<path d="M241.855 103.163H294.544C294.711 103.164 294.877 103.128 295.032 103.056C295.187 102.984 295.328 102.878 295.447 102.744C295.565 102.61 295.66 102.451 295.724 102.275C295.788 102.099 295.821 101.911 295.821 101.721C295.821 101.531 295.788 101.342 295.724 101.167C295.66 100.991 295.565 100.832 295.447 100.698C295.328 100.563 295.187 100.457 295.032 100.386C294.877 100.314 294.711 100.277 294.544 100.279H241.855C241.52 100.281 241.2 100.434 240.963 100.704C240.727 100.975 240.595 101.34 240.595 101.721C240.595 102.102 240.727 102.467 240.963 102.737C241.2 103.007 241.52 103.16 241.855 103.163Z" fill="#B188E3"/>
<path d="M175.017 103.644H227.705C227.873 103.645 228.039 103.609 228.193 103.537C228.348 103.465 228.489 103.359 228.608 103.225C228.727 103.091 228.821 102.931 228.885 102.756C228.95 102.58 228.983 102.392 228.983 102.202C228.983 102.011 228.95 101.823 228.885 101.647C228.821 101.472 228.727 101.312 228.608 101.178C228.489 101.044 228.348 100.938 228.193 100.866C228.039 100.794 227.873 100.758 227.705 100.759H175.017C174.849 100.758 174.683 100.794 174.528 100.866C174.373 100.938 174.233 101.044 174.114 101.178C173.995 101.312 173.901 101.472 173.836 101.647C173.772 101.823 173.739 102.011 173.739 102.202C173.739 102.392 173.772 102.58 173.836 102.756C173.901 102.931 173.995 103.091 174.114 103.225C174.233 103.359 174.373 103.465 174.528 103.537C174.683 103.609 174.849 103.645 175.017 103.644Z" fill="#B188E3"/>
<path d="M108.179 104.124H160.867C161.202 104.122 161.523 103.969 161.759 103.699C161.995 103.428 162.127 103.063 162.127 102.682C162.127 102.301 161.995 101.936 161.759 101.666C161.523 101.396 161.202 101.243 160.867 101.24H108.179C108.011 101.239 107.845 101.275 107.69 101.347C107.535 101.419 107.394 101.525 107.276 101.659C107.157 101.793 107.063 101.952 106.998 102.128C106.934 102.304 106.901 102.492 106.901 102.682C106.901 102.872 106.934 103.061 106.998 103.236C107.063 103.412 107.157 103.571 107.276 103.706C107.394 103.84 107.535 103.946 107.69 104.018C107.845 104.089 108.011 104.126 108.179 104.124Z" fill="#B188E3"/>
<path d="M41.3402 104.605H94.0286C94.3637 104.603 94.6842 104.449 94.9204 104.179C95.1565 103.909 95.2891 103.544 95.2891 103.163C95.2891 102.782 95.1565 102.417 94.9204 102.147C94.6842 101.876 94.3637 101.723 94.0286 101.721H41.3402C41.0051 101.723 40.6845 101.876 40.4484 102.147C40.2123 102.417 40.0797 102.782 40.0797 103.163C40.0797 103.544 40.2123 103.909 40.4484 104.179C40.6845 104.449 41.0051 104.603 41.3402 104.605Z" fill="#B188E3"/>
<path d="M268.315 89.89C262.907 89.89 258.523 84.9076 258.523 78.7615C258.523 72.6154 262.907 67.6331 268.315 67.6331C273.724 67.6331 278.108 72.6154 278.108 78.7615C278.108 84.9076 273.724 89.89 268.315 89.89Z" fill="#B188E3"/>
<path d="M201.073 89.89C195.665 89.89 191.281 84.9076 191.281 78.7615C191.281 72.6154 195.665 67.6331 201.073 67.6331C206.481 67.6331 210.866 72.6154 210.866 78.7615C210.866 84.9076 206.481 89.89 201.073 89.89Z" fill="#B188E3"/>
<path d="M133.831 89.89C128.423 89.89 124.039 84.9076 124.039 78.7615C124.039 72.6154 128.423 67.6331 133.831 67.6331C139.24 67.6331 143.624 72.6154 143.624 78.7615C143.624 84.9076 139.24 89.89 133.831 89.89Z" fill="#B188E3"/>
<path d="M66.5892 89.89C61.1809 89.89 56.7967 84.9076 56.7967 78.7615C56.7967 72.6154 61.1809 67.6331 66.5892 67.6331C71.9974 67.6331 76.3817 72.6154 76.3817 78.7615C76.3817 84.9076 71.9974 89.89 66.5892 89.89Z" fill="#B188E3"/>
</g>
<defs>
<clipPath id="clip0_339_477">
<rect width="621" height="469" fill="white" transform="matrix(-1 0 0 1 621 0)"/>
</clipPath>
</defs>
</svg>
