<svg xmlns="http://www.w3.org/2000/svg" xmlns:xlink="http://www.w3.org/1999/xlink" width="500" zoomAndPan="magnify" viewBox="0 0 375 374.999991" height="500" preserveAspectRatio="xMidYMid meet" version="1.0"><defs><g/><clipPath id="a2978abbd4"><path d="M 166 137 L 189.160156 137 L 189.160156 160 L 166 160 Z M 166 137 " clip-rule="nonzero"/></clipPath><clipPath id="e0c27740d9"><path d="M 61.546875 143 L 132 143 L 132 256.433594 L 61.546875 256.433594 Z M 61.546875 143 " clip-rule="nonzero"/></clipPath><clipPath id="3f2b40a71d"><path d="M 39.160156 112.5 L 136 112.5 L 136 183 L 39.160156 183 Z M 39.160156 112.5 " clip-rule="nonzero"/></clipPath></defs><g clip-path="url(#a2978abbd4)"><path fill="#b188e3" d="M 177.851562 137.949219 L 181.339844 146.164062 L 189.160156 146.164062 L 183.5 151.679688 L 184.839844 159.464844 L 177.851562 155.78125 L 170.855469 159.464844 L 172.191406 151.679688 L 166.542969 146.164062 L 174.351562 146.164062 L 177.851562 137.949219 " fill-opacity="1" fill-rule="nonzero"/></g><path fill="#614b7d" d="M 152.59375 115.703125 L 154.945312 121.238281 L 160.21875 121.238281 L 156.40625 124.957031 L 157.308594 130.195312 L 152.59375 127.71875 L 147.890625 130.195312 L 148.78125 124.957031 L 144.976562 121.238281 L 150.242188 121.238281 L 152.59375 115.703125 " fill-opacity="1" fill-rule="nonzero"/><path fill="#b188e3" d="M 136.667969 157.261719 L 138.21875 160.898438 L 141.671875 160.898438 L 139.171875 163.328125 L 139.765625 166.773438 L 136.667969 165.148438 L 133.582031 166.773438 L 134.175781 163.328125 L 131.675781 160.898438 L 135.128906 160.898438 L 136.667969 157.261719 " fill-opacity="1" fill-rule="nonzero"/><g clip-path="url(#e0c27740d9)"><path fill="#b188e3" d="M 70.675781 192.121094 C 65.675781 221.46875 84.300781 249.402344 112.75 256.433594 C 111.367188 256.300781 109.96875 256.117188 108.570312 255.871094 C 77.820312 250.644531 57.128906 221.449219 62.367188 190.703125 C 67.605469 159.953125 96.789062 139.253906 127.539062 144.492188 C 128.9375 144.738281 130.320312 145.027344 131.675781 145.359375 C 102.5 142.578125 75.679688 162.761719 70.675781 192.121094 " fill-opacity="1" fill-rule="evenodd"/></g><path fill="#614b7d" d="M 156.066406 235.671875 C 109.566406 262.152344 63.671875 197.410156 104.050781 162.296875 C 102.753906 163.042969 101.476562 163.84375 100.234375 164.730469 C 79.878906 179.167969 75.066406 207.378906 89.496094 227.738281 C 103.933594 248.097656 132.148438 252.898438 152.507812 238.46875 C 153.75 237.585938 154.9375 236.652344 156.066406 235.671875 " fill-opacity="1" fill-rule="evenodd"/><g clip-path="url(#3f2b40a71d)"><path fill="#614b7d" d="M 121.820312 129.089844 L 124.625 135.871094 C 122.414062 135.632812 120.203125 135.519531 117.996094 135.519531 C 102.914062 135.519531 88.203125 140.878906 76.570312 150.605469 C 72.707031 153.832031 69.269531 157.480469 66.285156 161.457031 L 63.347656 154.347656 L 62.980469 153.464844 L 60.128906 153.265625 L 50.84375 152.597656 L 44.222656 152.125 L 43.960938 152.109375 L 43.960938 171.804688 C 44.640625 172.207031 45.105469 172.941406 45.105469 173.78125 C 45.105469 174.496094 44.773438 175.144531 44.25 175.554688 C 44.160156 175.632812 44.066406 175.703125 43.960938 175.757812 L 43.960938 177.917969 L 46.363281 182.726562 L 39.160156 182.726562 L 41.519531 178.003906 L 41.519531 175.886719 C 40.835938 175.496094 40.375 174.761719 40.375 173.910156 C 40.375 173.117188 40.777344 172.417969 41.398438 172.003906 C 41.441406 171.96875 41.476562 171.933594 41.519531 171.910156 C 41.574219 171.875 41.617188 171.839844 41.675781 171.804688 L 41.675781 151.953125 L 81.234375 114.320312 L 125.746094 113.210938 L 135.8125 112.957031 L 121.820312 129.089844 " fill-opacity="1" fill-rule="evenodd"/></g><g fill="#614b7d" fill-opacity="1"><g transform="translate(91.454574, 215.483424)"><g><path d="M 19.4375 -44.84375 C 21.820312 -44.84375 24.148438 -44.492188 26.421875 -43.796875 C 28.703125 -43.109375 30.394531 -42.425781 31.5 -41.75 L 33.109375 -40.6875 L 29.046875 -32.671875 C 28.722656 -32.890625 28.273438 -33.164062 27.703125 -33.5 C 27.140625 -33.84375 26.070312 -34.296875 24.5 -34.859375 C 22.9375 -35.429688 21.476562 -35.71875 20.125 -35.71875 C 18.457031 -35.71875 17.164062 -35.359375 16.25 -34.640625 C 15.34375 -33.929688 14.890625 -32.972656 14.890625 -31.765625 C 14.890625 -31.160156 15.101562 -30.597656 15.53125 -30.078125 C 15.957031 -29.566406 16.6875 -29.015625 17.71875 -28.421875 C 18.757812 -27.835938 19.671875 -27.367188 20.453125 -27.015625 C 21.234375 -26.660156 22.441406 -26.125 24.078125 -25.40625 C 26.921875 -24.195312 29.347656 -22.550781 31.359375 -20.46875 C 33.378906 -18.394531 34.390625 -16.039062 34.390625 -13.40625 C 34.390625 -10.875 33.929688 -8.664062 33.015625 -6.78125 C 32.109375 -4.894531 30.863281 -3.414062 29.28125 -2.34375 C 27.695312 -1.28125 25.941406 -0.492188 24.015625 0.015625 C 22.097656 0.535156 20.019531 0.796875 17.78125 0.796875 C 15.851562 0.796875 13.960938 0.597656 12.109375 0.203125 C 10.265625 -0.179688 8.71875 -0.664062 7.46875 -1.25 C 6.226562 -1.84375 5.109375 -2.421875 4.109375 -2.984375 C 3.109375 -3.554688 2.378906 -4.039062 1.921875 -4.4375 L 1.234375 -5.015625 L 6.25 -13.453125 C 6.675781 -13.097656 7.257812 -12.644531 8 -12.09375 C 8.75 -11.539062 10.078125 -10.800781 11.984375 -9.875 C 13.890625 -8.945312 15.570312 -8.484375 17.03125 -8.484375 C 21.269531 -8.484375 23.390625 -9.925781 23.390625 -12.8125 C 23.390625 -13.414062 23.238281 -13.972656 22.9375 -14.484375 C 22.632812 -15.003906 22.097656 -15.519531 21.328125 -16.03125 C 20.566406 -16.550781 19.890625 -16.960938 19.296875 -17.265625 C 18.710938 -17.566406 17.753906 -18.03125 16.421875 -18.65625 C 15.085938 -19.28125 14.097656 -19.753906 13.453125 -20.078125 C 10.785156 -21.390625 8.722656 -23.035156 7.265625 -25.015625 C 5.804688 -26.992188 5.078125 -29.117188 5.078125 -31.390625 C 5.078125 -35.335938 6.535156 -38.566406 9.453125 -41.078125 C 12.367188 -43.585938 15.695312 -44.84375 19.4375 -44.84375 Z M 19.4375 -44.84375 "/></g></g></g><g fill="#614b7d" fill-opacity="1"><g transform="translate(123.328314, 215.483424)"><g><path d="M 17.78125 -20.453125 C 16 -20.453125 14.46875 -19.789062 13.1875 -18.46875 C 11.90625 -17.15625 11.265625 -15.570312 11.265625 -13.71875 C 11.265625 -11.832031 11.90625 -10.226562 13.1875 -8.90625 C 14.46875 -7.59375 16 -6.9375 17.78125 -6.9375 C 18.632812 -6.9375 19.441406 -7.039062 20.203125 -7.25 C 20.972656 -7.46875 21.535156 -7.6875 21.890625 -7.90625 L 22.375 -8.21875 L 25.578125 -1.65625 C 25.328125 -1.476562 24.976562 -1.253906 24.53125 -0.984375 C 24.082031 -0.722656 23.066406 -0.363281 21.484375 0.09375 C 19.898438 0.5625 18.203125 0.796875 16.390625 0.796875 C 12.367188 0.796875 8.835938 -0.613281 5.796875 -3.4375 C 2.753906 -6.269531 1.234375 -9.660156 1.234375 -13.609375 C 1.234375 -17.597656 2.753906 -21.023438 5.796875 -23.890625 C 8.835938 -26.753906 12.367188 -28.1875 16.390625 -28.1875 C 18.203125 -28.1875 19.875 -27.972656 21.40625 -27.546875 C 22.9375 -27.117188 24.023438 -26.691406 24.671875 -26.265625 L 25.578125 -25.625 L 22.375 -19.171875 C 21.195312 -20.023438 19.664062 -20.453125 17.78125 -20.453125 Z M 17.78125 -20.453125 "/></g></g></g><g fill="#614b7d" fill-opacity="1"><g transform="translate(145.538353, 215.483424)"><g><path d="M 3.203125 0 L 3.203125 -45.921875 L 12.65625 -45.921875 L 12.65625 -24.5 L 12.765625 -24.5 C 15.210938 -26.957031 17.828125 -28.1875 20.609375 -28.1875 C 21.960938 -28.1875 23.304688 -28.007812 24.640625 -27.65625 C 25.972656 -27.300781 27.253906 -26.75 28.484375 -26 C 29.710938 -25.25 30.707031 -24.1875 31.46875 -22.8125 C 32.238281 -21.445312 32.625 -19.859375 32.625 -18.046875 L 32.625 0 L 23.171875 0 L 23.171875 -15.484375 C 23.171875 -16.910156 22.71875 -18.15625 21.8125 -19.21875 C 20.90625 -20.289062 19.722656 -20.828125 18.265625 -20.828125 C 16.835938 -20.828125 15.546875 -20.273438 14.390625 -19.171875 C 13.234375 -18.066406 12.65625 -16.835938 12.65625 -15.484375 L 12.65625 0 Z M 3.203125 0 "/></g></g></g><g fill="#614b7d" fill-opacity="1"><g transform="translate(176.824793, 215.483424)"><g><path d="M 5.796875 -3.25 C 2.753906 -5.957031 1.234375 -9.425781 1.234375 -13.65625 C 1.234375 -17.894531 2.816406 -21.375 5.984375 -24.09375 C 9.148438 -26.820312 13.0625 -28.1875 17.71875 -28.1875 C 22.3125 -28.1875 26.179688 -26.816406 29.328125 -24.078125 C 32.484375 -21.335938 34.0625 -17.867188 34.0625 -13.671875 C 34.0625 -9.472656 32.519531 -6.007812 29.4375 -3.28125 C 26.363281 -0.5625 22.457031 0.796875 17.71875 0.796875 C 12.8125 0.796875 8.835938 -0.550781 5.796875 -3.25 Z M 13.109375 -18.3125 C 11.878906 -17.101562 11.265625 -15.554688 11.265625 -13.671875 C 11.265625 -11.785156 11.851562 -10.242188 13.03125 -9.046875 C 14.207031 -7.859375 15.753906 -7.265625 17.671875 -7.265625 C 19.523438 -7.265625 21.046875 -7.867188 22.234375 -9.078125 C 23.429688 -10.285156 24.03125 -11.816406 24.03125 -13.671875 C 24.03125 -15.554688 23.414062 -17.101562 22.1875 -18.3125 C 20.957031 -19.519531 19.453125 -20.125 17.671875 -20.125 C 15.859375 -20.125 14.335938 -19.519531 13.109375 -18.3125 Z M 13.109375 -18.3125 "/></g></g></g><g fill="#614b7d" fill-opacity="1"><g transform="translate(208.111233, 215.483424)"><g><path d="M 5.796875 -3.25 C 2.753906 -5.957031 1.234375 -9.425781 1.234375 -13.65625 C 1.234375 -17.894531 2.816406 -21.375 5.984375 -24.09375 C 9.148438 -26.820312 13.0625 -28.1875 17.71875 -28.1875 C 22.3125 -28.1875 26.179688 -26.816406 29.328125 -24.078125 C 32.484375 -21.335938 34.0625 -17.867188 34.0625 -13.671875 C 34.0625 -9.472656 32.519531 -6.007812 29.4375 -3.28125 C 26.363281 -0.5625 22.457031 0.796875 17.71875 0.796875 C 12.8125 0.796875 8.835938 -0.550781 5.796875 -3.25 Z M 13.109375 -18.3125 C 11.878906 -17.101562 11.265625 -15.554688 11.265625 -13.671875 C 11.265625 -11.785156 11.851562 -10.242188 13.03125 -9.046875 C 14.207031 -7.859375 15.753906 -7.265625 17.671875 -7.265625 C 19.523438 -7.265625 21.046875 -7.867188 22.234375 -9.078125 C 23.429688 -10.285156 24.03125 -11.816406 24.03125 -13.671875 C 24.03125 -15.554688 23.414062 -17.101562 22.1875 -18.3125 C 20.957031 -19.519531 19.453125 -20.125 17.671875 -20.125 C 15.859375 -20.125 14.335938 -19.519531 13.109375 -18.3125 Z M 13.109375 -18.3125 "/></g></g></g><g fill="#614b7d" fill-opacity="1"><g transform="translate(239.397673, 215.483424)"><g><path d="M 3.203125 0 L 3.203125 -45.921875 L 12.65625 -45.921875 L 12.65625 0 Z M 3.203125 0 "/></g></g></g><g fill="#b188e3" fill-opacity="1"><g transform="translate(251.251442, 215.483424)"><g><path d="M 13.234375 -27.34375 L 13.234375 0 L 3.203125 0 L 3.203125 -44.046875 L 13.234375 -44.046875 L 30.75 -16.71875 L 30.859375 -16.71875 L 30.859375 -44.046875 L 40.890625 -44.046875 L 40.890625 0 L 30.859375 0 L 13.34375 -27.34375 Z M 13.234375 -27.34375 "/></g></g></g><g fill="#b188e3" fill-opacity="1"><g transform="translate(291.347338, 215.483424)"><g><path d="M 30.90625 -12.390625 L 11.046875 -12.390625 C 11.046875 -10.460938 11.671875 -9.035156 12.921875 -8.109375 C 14.171875 -7.191406 15.523438 -6.734375 16.984375 -6.734375 C 18.515625 -6.734375 19.722656 -6.9375 20.609375 -7.34375 C 21.492188 -7.75 22.507812 -8.554688 23.65625 -9.765625 L 30.484375 -6.359375 C 27.640625 -1.585938 22.90625 0.796875 16.28125 0.796875 C 12.15625 0.796875 8.613281 -0.613281 5.65625 -3.4375 C 2.707031 -6.269531 1.234375 -9.675781 1.234375 -13.65625 C 1.234375 -17.644531 2.707031 -21.0625 5.65625 -23.90625 C 8.613281 -26.757812 12.15625 -28.1875 16.28125 -28.1875 C 20.625 -28.1875 24.15625 -26.929688 26.875 -24.421875 C 29.601562 -21.910156 30.96875 -18.328125 30.96875 -13.671875 C 30.96875 -13.023438 30.945312 -12.597656 30.90625 -12.390625 Z M 11.3125 -17.625 L 21.734375 -17.625 C 21.515625 -19.039062 20.953125 -20.128906 20.046875 -20.890625 C 19.140625 -21.660156 17.972656 -22.046875 16.546875 -22.046875 C 14.984375 -22.046875 13.738281 -21.632812 12.8125 -20.8125 C 11.882812 -20 11.382812 -18.9375 11.3125 -17.625 Z M 11.3125 -17.625 "/></g></g></g><g fill="#b188e3" fill-opacity="1"><g transform="translate(319.537121, 215.483424)"><g><path d="M 4.8125 -27.390625 L 4.8125 -37.59375 L 14.25 -37.59375 L 14.25 -27.390625 L 20.015625 -27.390625 L 20.015625 -20.1875 L 14.25 -20.1875 L 14.25 -11.484375 C 14.25 -8.953125 14.960938 -7.6875 16.390625 -7.6875 C 16.742188 -7.6875 17.113281 -7.753906 17.5 -7.890625 C 17.894531 -8.035156 18.203125 -8.179688 18.421875 -8.328125 L 18.734375 -8.546875 L 21.09375 -0.90625 C 19.0625 0.226562 16.75 0.796875 14.15625 0.796875 C 12.375 0.796875 10.84375 0.488281 9.5625 -0.125 C 8.28125 -0.75 7.304688 -1.585938 6.640625 -2.640625 C 5.984375 -3.691406 5.515625 -4.796875 5.234375 -5.953125 C 4.953125 -7.109375 4.8125 -8.34375 4.8125 -9.65625 L 4.8125 -20.1875 L 0.859375 -20.1875 L 0.859375 -27.390625 Z M 4.8125 -27.390625 "/></g></g></g></svg>