<svg xmlns="http://www.w3.org/2000/svg" xmlns:xlink="http://www.w3.org/1999/xlink" width="1000" zoomAndPan="magnify" viewBox="0 0 750 374.999991" height="500" preserveAspectRatio="xMidYMid meet" version="1.0"><defs><g/><clipPath id="bdaf0ae9d3"><path d="M 270 100 L 310.167969 100 L 310.167969 139 L 270 139 Z M 270 100 " clip-rule="nonzero"/></clipPath><clipPath id="a337d83b2f"><path d="M 86.867188 110 L 210 110 L 210 308.1875 L 86.867188 308.1875 Z M 86.867188 110 " clip-rule="nonzero"/></clipPath><clipPath id="ba135e246a"><path d="M 47.667969 56.179688 L 217 56.179688 L 217 180 L 47.667969 180 Z M 47.667969 56.179688 " clip-rule="nonzero"/></clipPath></defs><g clip-path="url(#bdaf0ae9d3)"><path fill="#b188e3" d="M 290.5 100.742188 L 296.609375 115.117188 L 310.296875 115.117188 L 300.390625 124.78125 L 302.734375 138.40625 L 290.5 131.960938 L 278.25 138.40625 L 280.59375 124.78125 L 270.703125 115.117188 L 284.375 115.117188 L 290.5 100.742188 " fill-opacity="1" fill-rule="nonzero"/></g><path fill="#614b7d" d="M 246.277344 61.789062 L 250.398438 71.480469 L 259.632812 71.480469 L 252.957031 77.988281 L 254.53125 87.160156 L 246.277344 82.824219 L 238.042969 87.160156 L 239.601562 77.988281 L 232.941406 71.480469 L 242.160156 71.480469 L 246.277344 61.789062 " fill-opacity="1" fill-rule="nonzero"/><path fill="#b188e3" d="M 218.394531 134.550781 L 221.105469 140.917969 L 227.15625 140.917969 L 222.777344 145.175781 L 223.816406 151.207031 L 218.394531 148.359375 L 212.992188 151.207031 L 214.03125 145.175781 L 209.652344 140.917969 L 215.703125 140.917969 L 218.394531 134.550781 " fill-opacity="1" fill-rule="nonzero"/><g clip-path="url(#a337d83b2f)"><path fill="#b188e3" d="M 102.851562 195.582031 C 94.09375 246.96875 126.707031 295.875 176.519531 308.1875 C 174.097656 307.957031 171.648438 307.632812 169.199219 307.207031 C 115.363281 298.050781 79.136719 246.9375 88.308594 193.101562 C 97.480469 139.265625 148.574219 103.023438 202.410156 112.195312 C 204.859375 112.621094 207.28125 113.128906 209.652344 113.710938 C 158.574219 108.839844 111.613281 144.179688 102.851562 195.582031 " fill-opacity="1" fill-rule="evenodd"/></g><path fill="#614b7d" d="M 252.359375 271.835938 C 170.945312 318.199219 90.589844 204.847656 161.28125 143.367188 C 159.015625 144.671875 156.78125 146.078125 154.605469 147.625 C 118.960938 172.90625 110.539062 222.300781 135.804688 257.949219 C 161.085938 293.59375 210.480469 302 246.125 276.734375 C 248.300781 275.1875 250.382812 273.550781 252.359375 271.835938 " fill-opacity="1" fill-rule="evenodd"/><g clip-path="url(#ba135e246a)"><path fill="#614b7d" d="M 192.398438 85.230469 L 197.3125 97.097656 C 193.4375 96.683594 189.5625 96.484375 185.707031 96.484375 C 159.292969 96.484375 133.539062 105.871094 113.171875 122.898438 C 106.40625 128.546875 100.386719 134.933594 95.167969 141.898438 L 90.023438 129.449219 L 89.378906 127.902344 L 84.386719 127.550781 L 68.125 126.386719 L 56.535156 125.5625 L 56.074219 125.53125 L 56.074219 160.011719 C 57.269531 160.71875 58.082031 162.003906 58.082031 163.472656 C 58.082031 164.730469 57.5 165.863281 56.582031 166.582031 C 56.425781 166.71875 56.257812 166.84375 56.074219 166.933594 L 56.074219 170.714844 L 60.285156 179.136719 L 47.667969 179.136719 L 51.804688 170.867188 L 51.804688 167.164062 C 50.609375 166.472656 49.796875 165.1875 49.796875 163.703125 C 49.796875 162.308594 50.5 161.085938 51.589844 160.363281 C 51.664062 160.304688 51.726562 160.242188 51.804688 160.195312 C 51.894531 160.136719 51.972656 160.074219 52.078125 160.011719 L 52.078125 125.253906 L 121.335938 59.367188 L 199.273438 57.421875 L 216.894531 56.980469 L 192.398438 85.230469 " fill-opacity="1" fill-rule="evenodd"/></g><g fill="#614b7d" fill-opacity="1"><g transform="translate(139.262306, 236.029553)"><g><path d="M 34.03125 -78.53125 C 38.207031 -78.53125 42.285156 -77.921875 46.265625 -76.703125 C 50.253906 -75.484375 53.21875 -74.285156 55.15625 -73.109375 L 57.953125 -71.234375 L 50.859375 -57.21875 C 50.296875 -57.582031 49.515625 -58.0625 48.515625 -58.65625 C 47.515625 -59.25 45.644531 -60.046875 42.90625 -61.046875 C 40.164062 -62.046875 37.613281 -62.546875 35.25 -62.546875 C 32.3125 -62.546875 30.046875 -61.921875 28.453125 -60.671875 C 26.867188 -59.421875 26.078125 -57.738281 26.078125 -55.625 C 26.078125 -54.5625 26.453125 -53.578125 27.203125 -52.671875 C 27.953125 -51.773438 29.226562 -50.8125 31.03125 -49.78125 C 32.84375 -48.75 34.429688 -47.921875 35.796875 -47.296875 C 37.171875 -46.679688 39.289062 -45.75 42.15625 -44.5 C 47.144531 -42.375 51.398438 -39.488281 54.921875 -35.84375 C 58.441406 -32.195312 60.203125 -28.070312 60.203125 -23.46875 C 60.203125 -19.039062 59.40625 -15.175781 57.8125 -11.875 C 56.226562 -8.570312 54.046875 -5.984375 51.265625 -4.109375 C 48.492188 -2.242188 45.425781 -0.859375 42.0625 0.046875 C 38.695312 0.953125 35.050781 1.40625 31.125 1.40625 C 27.757812 1.40625 24.457031 1.0625 21.21875 0.375 C 17.976562 -0.3125 15.265625 -1.164062 13.078125 -2.1875 C 10.898438 -3.21875 8.9375 -4.234375 7.1875 -5.234375 C 5.445312 -6.234375 4.171875 -7.078125 3.359375 -7.765625 L 2.15625 -8.78125 L 10.9375 -23.5625 C 11.6875 -22.9375 12.710938 -22.140625 14.015625 -21.171875 C 15.328125 -20.203125 17.648438 -18.90625 20.984375 -17.28125 C 24.316406 -15.664062 27.265625 -14.859375 29.828125 -14.859375 C 37.242188 -14.859375 40.953125 -17.382812 40.953125 -22.4375 C 40.953125 -23.5 40.6875 -24.476562 40.15625 -25.375 C 39.625 -26.28125 38.6875 -27.1875 37.34375 -28.09375 C 36.007812 -29 34.828125 -29.710938 33.796875 -30.234375 C 32.765625 -30.765625 31.078125 -31.578125 28.734375 -32.671875 C 26.398438 -33.765625 24.675781 -34.59375 23.5625 -35.15625 C 18.882812 -37.457031 15.265625 -40.335938 12.703125 -43.796875 C 10.148438 -47.253906 8.875 -50.976562 8.875 -54.96875 C 8.875 -61.882812 11.429688 -67.539062 16.546875 -71.9375 C 21.660156 -76.332031 27.488281 -78.53125 34.03125 -78.53125 Z M 34.03125 -78.53125 "/></g></g></g><g fill="#614b7d" fill-opacity="1"><g transform="translate(195.064752, 236.029553)"><g><path d="M 31.125 -35.796875 C 28.007812 -35.796875 25.328125 -34.644531 23.078125 -32.34375 C 20.835938 -30.039062 19.71875 -27.269531 19.71875 -24.03125 C 19.71875 -20.726562 20.835938 -17.921875 23.078125 -15.609375 C 25.328125 -13.304688 28.007812 -12.15625 31.125 -12.15625 C 32.625 -12.15625 34.039062 -12.34375 35.375 -12.71875 C 36.71875 -13.09375 37.703125 -13.460938 38.328125 -13.828125 L 39.171875 -14.390625 L 44.78125 -2.890625 C 44.34375 -2.585938 43.734375 -2.203125 42.953125 -1.734375 C 42.171875 -1.265625 40.394531 -0.625 37.625 0.1875 C 34.851562 1 31.878906 1.40625 28.703125 1.40625 C 21.660156 1.40625 15.472656 -1.070312 10.140625 -6.03125 C 4.816406 -10.988281 2.15625 -16.925781 2.15625 -23.84375 C 2.15625 -30.820312 4.816406 -36.816406 10.140625 -41.828125 C 15.472656 -46.847656 21.660156 -49.359375 28.703125 -49.359375 C 31.878906 -49.359375 34.804688 -48.984375 37.484375 -48.234375 C 40.160156 -47.484375 42.0625 -46.738281 43.1875 -46 L 44.78125 -44.875 L 39.171875 -33.5625 C 37.109375 -35.050781 34.425781 -35.796875 31.125 -35.796875 Z M 31.125 -35.796875 "/></g></g></g><g fill="#614b7d" fill-opacity="1"><g transform="translate(233.948409, 236.029553)"><g><path d="M 5.609375 0 L 5.609375 -80.390625 L 22.15625 -80.390625 L 22.15625 -42.90625 L 22.34375 -42.90625 C 26.644531 -47.207031 31.222656 -49.359375 36.078125 -49.359375 C 38.453125 -49.359375 40.804688 -49.046875 43.140625 -48.421875 C 45.484375 -47.796875 47.726562 -46.828125 49.875 -45.515625 C 52.019531 -44.210938 53.765625 -42.359375 55.109375 -39.953125 C 56.453125 -37.554688 57.125 -34.769531 57.125 -31.59375 L 57.125 0 L 40.578125 0 L 40.578125 -27.109375 C 40.578125 -29.597656 39.78125 -31.773438 38.1875 -33.640625 C 36.59375 -35.515625 34.519531 -36.453125 31.96875 -36.453125 C 29.476562 -36.453125 27.21875 -35.484375 25.1875 -33.546875 C 23.164062 -31.617188 22.15625 -29.472656 22.15625 -27.109375 L 22.15625 0 Z M 5.609375 0 "/></g></g></g><g fill="#614b7d" fill-opacity="1"><g transform="translate(288.722638, 236.029553)"><g><path d="M 10.140625 -5.703125 C 4.816406 -10.441406 2.15625 -16.519531 2.15625 -23.9375 C 2.15625 -31.351562 4.925781 -37.441406 10.46875 -42.203125 C 16.019531 -46.972656 22.875 -49.359375 31.03125 -49.359375 C 39.070312 -49.359375 45.847656 -46.957031 51.359375 -42.15625 C 56.878906 -37.363281 59.640625 -31.289062 59.640625 -23.9375 C 59.640625 -16.582031 56.941406 -10.519531 51.546875 -5.75 C 46.160156 -0.976562 39.320312 1.40625 31.03125 1.40625 C 22.4375 1.40625 15.472656 -0.960938 10.140625 -5.703125 Z M 22.9375 -32.0625 C 20.789062 -29.945312 19.71875 -27.238281 19.71875 -23.9375 C 19.71875 -20.632812 20.742188 -17.9375 22.796875 -15.84375 C 24.859375 -13.757812 27.570312 -12.71875 30.9375 -12.71875 C 34.175781 -12.71875 36.835938 -13.773438 38.921875 -15.890625 C 41.015625 -18.015625 42.0625 -20.695312 42.0625 -23.9375 C 42.0625 -27.238281 40.988281 -29.945312 38.84375 -32.0625 C 36.695312 -34.1875 34.0625 -35.25 30.9375 -35.25 C 27.757812 -35.25 25.09375 -34.1875 22.9375 -32.0625 Z M 22.9375 -32.0625 "/></g></g></g><g fill="#614b7d" fill-opacity="1"><g transform="translate(343.496868, 236.029553)"><g><path d="M 10.140625 -5.703125 C 4.816406 -10.441406 2.15625 -16.519531 2.15625 -23.9375 C 2.15625 -31.351562 4.925781 -37.441406 10.46875 -42.203125 C 16.019531 -46.972656 22.875 -49.359375 31.03125 -49.359375 C 39.070312 -49.359375 45.847656 -46.957031 51.359375 -42.15625 C 56.878906 -37.363281 59.640625 -31.289062 59.640625 -23.9375 C 59.640625 -16.582031 56.941406 -10.519531 51.546875 -5.75 C 46.160156 -0.976562 39.320312 1.40625 31.03125 1.40625 C 22.4375 1.40625 15.472656 -0.960938 10.140625 -5.703125 Z M 22.9375 -32.0625 C 20.789062 -29.945312 19.71875 -27.238281 19.71875 -23.9375 C 19.71875 -20.632812 20.742188 -17.9375 22.796875 -15.84375 C 24.859375 -13.757812 27.570312 -12.71875 30.9375 -12.71875 C 34.175781 -12.71875 36.835938 -13.773438 38.921875 -15.890625 C 41.015625 -18.015625 42.0625 -20.695312 42.0625 -23.9375 C 42.0625 -27.238281 40.988281 -29.945312 38.84375 -32.0625 C 36.695312 -34.1875 34.0625 -35.25 30.9375 -35.25 C 27.757812 -35.25 25.09375 -34.1875 22.9375 -32.0625 Z M 22.9375 -32.0625 "/></g></g></g><g fill="#614b7d" fill-opacity="1"><g transform="translate(398.271097, 236.029553)"><g><path d="M 5.609375 0 L 5.609375 -80.390625 L 22.15625 -80.390625 L 22.15625 0 Z M 5.609375 0 "/></g></g></g><g fill="#b188e3" fill-opacity="1"><g transform="translate(419.021007, 236.029553)"><g><path d="M 23.1875 -47.859375 L 23.1875 0 L 5.609375 0 L 5.609375 -77.125 L 23.1875 -77.125 L 53.84375 -29.265625 L 54.03125 -29.265625 L 54.03125 -77.125 L 71.609375 -77.125 L 71.609375 0 L 54.03125 0 L 23.375 -47.859375 Z M 23.1875 -47.859375 "/></g></g></g><g fill="#b188e3" fill-opacity="1"><g transform="translate(489.218438, 236.029553)"><g><path d="M 54.125 -21.6875 L 19.34375 -21.6875 C 19.34375 -18.320312 20.429688 -15.828125 22.609375 -14.203125 C 24.796875 -12.585938 27.171875 -11.78125 29.734375 -11.78125 C 32.410156 -11.78125 34.523438 -12.132812 36.078125 -12.84375 C 37.640625 -13.5625 39.414062 -14.984375 41.40625 -17.109375 L 53.375 -11.125 C 48.394531 -2.769531 40.109375 1.40625 28.515625 1.40625 C 21.285156 1.40625 15.082031 -1.070312 9.90625 -6.03125 C 4.738281 -10.988281 2.15625 -16.957031 2.15625 -23.9375 C 2.15625 -30.914062 4.738281 -36.894531 9.90625 -41.875 C 15.082031 -46.863281 21.285156 -49.359375 28.515625 -49.359375 C 36.117188 -49.359375 42.300781 -47.160156 47.0625 -42.765625 C 51.832031 -38.367188 54.21875 -32.09375 54.21875 -23.9375 C 54.21875 -22.8125 54.1875 -22.0625 54.125 -21.6875 Z M 19.8125 -30.84375 L 38.046875 -30.84375 C 37.671875 -33.34375 36.6875 -35.257812 35.09375 -36.59375 C 33.507812 -37.9375 31.472656 -38.609375 28.984375 -38.609375 C 26.234375 -38.609375 24.046875 -37.890625 22.421875 -36.453125 C 20.804688 -35.023438 19.9375 -33.15625 19.8125 -30.84375 Z M 19.8125 -30.84375 "/></g></g></g><g fill="#b188e3" fill-opacity="1"><g transform="translate(538.571181, 236.029553)"><g><path d="M 8.40625 -47.953125 L 8.40625 -65.8125 L 24.953125 -65.8125 L 24.953125 -47.953125 L 35.0625 -47.953125 L 35.0625 -35.34375 L 24.953125 -35.34375 L 24.953125 -20.09375 C 24.953125 -15.675781 26.203125 -13.46875 28.703125 -13.46875 C 29.328125 -13.46875 29.976562 -13.585938 30.65625 -13.828125 C 31.34375 -14.078125 31.875 -14.328125 32.25 -14.578125 L 32.8125 -14.953125 L 36.921875 -1.59375 C 33.367188 0.40625 29.316406 1.40625 24.765625 1.40625 C 21.648438 1.40625 18.972656 0.859375 16.734375 -0.234375 C 14.492188 -1.328125 12.796875 -2.789062 11.640625 -4.625 C 10.484375 -6.46875 9.65625 -8.398438 9.15625 -10.421875 C 8.65625 -12.453125 8.40625 -14.617188 8.40625 -16.921875 L 8.40625 -35.34375 L 1.5 -35.34375 L 1.5 -47.953125 Z M 8.40625 -47.953125 "/></g></g></g></svg>